<?xml version="1.0" standalone="no"?>
<!DOCTYPE svg PUBLIC "-//W3C//DTD SVG 20010904//EN"
 "http://www.w3.org/TR/2001/REC-SVG-20010904/DTD/svg10.dtd">
<svg version="1.0" xmlns="http://www.w3.org/2000/svg"
 width="512.000000pt" height="512.000000pt" viewBox="0 0 512.000000 512.000000"
 preserveAspectRatio="xMidYMid meet">

<g transform="translate(0.000000,512.000000) scale(0.100000,-0.100000)"
fill="#000000" stroke="none">
<path d="M2100 4435 c-97 -16 -224 -50 -274 -72 -95 -43 -187 -94 -242 -136
-240 -183 -360 -399 -449 -811 -9 -38 -24 -104 -35 -147 -21 -83 -27 -208 -10
-225 8 -8 -1 -31 -27 -75 l-38 -64 1 -125 c1 -117 3 -129 31 -190 32 -69 57
-98 68 -80 11 18 24 11 27 -17 2 -20 8 -27 20 -25 12 2 19 -6 23 -25 4 -15 11
-37 15 -48 5 -11 19 -49 31 -83 25 -74 18 -91 -30 -74 l-31 11 -1 -72 c0 -40
-3 -83 -5 -97 -5 -26 -57 -111 -80 -130 -43 -36 13 -118 96 -141 25 -7 59 -25
75 -40 55 -50 105 -69 186 -70 41 -1 88 1 105 5 21 5 48 0 85 -14 30 -11 64
-20 77 -20 12 0 22 -4 22 -9 0 -5 12 -14 28 -20 15 -6 38 -20 51 -30 l25 -19
-29 -25 c-16 -14 -63 -35 -105 -48 -41 -13 -76 -27 -78 -31 -2 -5 -12 -8 -22
-8 -10 0 -59 -13 -109 -30 -50 -16 -114 -36 -143 -44 -60 -16 -167 -60 -248
-101 -156 -79 -274 -209 -331 -363 -26 -70 -74 -290 -94 -432 -21 -140 -45
-289 -52 -319 l-6 -24 1734 7 c954 4 1737 11 1741 14 4 4 11 153 15 332 14
584 8 711 -39 802 -18 35 -22 59 -23 167 0 69 -5 136 -9 148 -9 26 8 35 109
58 82 18 164 41 200 56 17 7 32 13 35 13 3 1 10 4 15 7 6 3 43 16 83 29 39 12
72 26 72 30 0 8 -136 -32 -185 -55 -38 -17 -214 -60 -363 -89 -62 -11 -113
-25 -113 -31 0 -5 19 -16 43 -22 39 -11 31 -12 -79 -9 -111 4 -128 7 -186 34
-63 30 -65 32 -73 79 -6 36 -9 42 -12 23 -2 -14 -16 -36 -32 -50 -31 -28 -54
-104 -65 -210 -4 -38 -15 -76 -26 -92 -10 -15 -19 -32 -19 -38 0 -5 -4 -10 -8
-10 -4 0 -14 -16 -21 -35 -15 -41 -28 -43 -79 -12 -49 31 -233 112 -347 153
-27 9 -54 20 -60 24 -5 4 -44 19 -87 34 -77 28 -116 56 -103 75 10 17 56 38
100 46 22 4 45 10 50 15 6 4 42 17 82 29 115 34 147 77 117 155 -6 16 -4 17
27 10 48 -11 237 -13 279 -2 45 11 77 37 85 68 4 20 -3 34 -35 70 -57 63 -67
85 -75 171 -7 72 -8 76 -30 71 -35 -6 -39 14 -12 61 14 23 28 57 32 75 4 22
16 37 32 45 22 10 24 15 18 58 -8 54 12 84 54 84 18 0 29 10 45 40 17 33 21
58 21 135 -1 109 -18 272 -34 313 -18 47 -13 129 9 157 27 34 25 50 -5 50 -16
0 -28 7 -31 18 -3 9 -10 26 -14 37 -5 11 -18 63 -29 115 -29 138 -68 279 -91
327 -11 24 -20 48 -20 54 0 17 -69 138 -114 199 -58 79 -112 136 -186 195 -60
48 -174 125 -185 125 -2 0 -28 11 -57 24 -68 32 -243 81 -335 95 -93 14 -248
12 -343 -4z m-184 -1416 c61 -29 104 -78 134 -153 l27 -66 32 45 c40 56 77 76
152 82 90 9 136 -9 188 -72 24 -30 48 -52 51 -50 4 3 12 24 18 48 18 72 80
137 161 172 64 28 184 16 235 -24 70 -55 122 -143 112 -189 -6 -26 -4 -28 58
-46 83 -23 138 -71 131 -112 -3 -16 -10 -64 -16 -107 -6 -43 -24 -117 -41
-165 -16 -48 -43 -125 -59 -171 -48 -140 -156 -332 -239 -424 -38 -43 -196
-174 -273 -226 -235 -160 -428 -146 -663 49 -16 14 -46 36 -64 50 -52 38 -164
142 -183 170 -10 14 -33 48 -53 75 -19 28 -43 66 -53 85 -9 19 -22 44 -29 55
-70 121 -174 450 -187 590 -7 67 -6 71 19 96 24 25 118 59 160 59 12 0 16 5
12 16 -3 8 3 39 13 68 31 90 91 143 181 162 66 14 120 9 176 -17z"/>
<path d="M1729 3006 c-99 -69 -105 -185 -13 -265 29 -26 43 -31 84 -31 43 0
50 3 50 20 0 11 12 26 30 35 38 20 43 19 37 -4 -9 -34 28 -3 47 39 32 73 16
146 -43 196 -28 23 -45 29 -95 32 -52 3 -66 0 -97 -22z m54 -57 c24 -39 -33
-70 -63 -34 -10 13 -9 19 6 36 20 22 42 22 57 -2z"/>
<path d="M2695 3021 c-67 -31 -110 -110 -99 -183 8 -50 65 -114 113 -129 51
-15 87 -9 83 14 -4 21 24 46 51 47 9 0 17 -6 17 -12 0 -7 14 2 30 20 53 58 35
164 -37 219 -37 29 -120 41 -158 24z m13 -63 c15 -15 16 -54 2 -63 -15 -9 -47
4 -54 22 -4 9 1 24 10 34 20 22 26 23 42 7z"/>
<path d="M2131 2442 c-2 -90 154 -138 261 -81 36 20 76 109 49 109 -5 0 -12
-9 -16 -19 -21 -67 -250 -65 -283 2 -10 20 -11 19 -11 -11z"/>
<path d="M1884 2163 c40 -78 140 -157 241 -191 24 -8 87 -14 155 -15 133 -1
191 14 279 72 52 34 141 130 141 151 0 6 -156 10 -415 10 l-416 0 15 -27z
m299 -30 c-7 -2 -19 -2 -25 0 -7 3 -2 5 12 5 14 0 19 -2 13 -5z m135 0 c-21
-2 -57 -2 -80 0 -24 2 -7 4 37 4 44 0 63 -2 43 -4z"/>
<path d="M4864 2108 l-19 -23 23 19 c12 11 22 21 22 23 0 8 -8 2 -26 -19z"/>
<path d="M3583 1830 c0 -25 2 -35 4 -22 2 12 2 32 0 45 -2 12 -4 2 -4 -23z"/>
<path d="M4595 1855 c-40 -19 -16 -19 26 0 19 8 27 14 19 14 -8 0 -28 -7 -45
-14z"/>
</g>
</svg>
