<svg id="Layer_1" data-name="Layer 1" xmlns="http://www.w3.org/2000/svg" viewBox="0 0 378.1 123.61"><defs><style>.cls-1{fill:#fff;}.cls-2{fill:#93f;}</style></defs><title>hsn</title><g id="Logo"><path class="cls-1" d="M77.3,35.3c-5-9.9-14.6-14.8-28.7-14.8A40.55,40.55,0,0,0,31,24.3,44.29,44.29,0,0,0,16,36.9V0H0V122.6H16.8V70.3c0-6.5.4-11.6,1.3-15.1A24.42,24.42,0,0,1,23.6,45a25.48,25.48,0,0,1,12.1-8.2,33.09,33.09,0,0,1,9.8-1.2q11.7,0,16.2,9.3,2.7,5.55,2.7,14.7v63H81.5V58.5C81.4,48.4,80,40.7,77.3,35.3Z"/><path class="cls-2" d="M286.2,113.9h-2c-.8,0-1.5-1.2-1.5-2.6,0-2.1,1.2-4.4,3.9-7.6l.3-.4-2.3-2.3-.4.3c-4.6,4.3-6.9,9-6.9,14s2.5,8.3,6.3,8.3a5.83,5.83,0,0,0,6.09-5.55q0-.17,0-.35a3.35,3.35,0,0,0-3.5-3.8Z"/><path class="cls-2" d="M136.5,60.1l-.3.4-7.4,9.4-.3.4,2.1,1.8c3,2.5,5.9,4.9,8.8,7.7l.3.3.3-.3a37.58,37.58,0,0,0,7.7-9.1l.2-.3-.3-.3A82.75,82.75,0,0,0,136.5,60.1Z"/><path class="cls-2" d="M240.1,21.2c-14.3,0-27.8,4-38.4,14a25.35,25.35,0,0,0-7.2-7.8,88.69,88.69,0,0,0-12-6.3l-.4.3a63,63,0,0,0,2,9.4,70.18,70.18,0,0,1,11.4,5.1c1.9,1.2,1.8,3.4.7,5.2-2,3.1-6.8,5-11.6,1.9a28.1,28.1,0,0,1-5.7-4.9l-.5.2-.2,5.3c5.4,6.2,7,7.8,7.2,11.1a12.28,12.28,0,0,1-1.8,6.9,3.65,3.65,0,0,1-4.93,1.52l-.37-.22c-1.9-1.2-4-5.1-6.4-10.2h-.5l-1.4,6,2.8,6.8c2.2,5.3,1.8,13.5-.9,19.4l-.5.9a10.93,10.93,0,0,0-.8,1.5l-.2.4c-9.2,16.2-20.8,19.6-31.4,19.6-21.9,0-35.2-14.2-35.2-35.2,0-20.3,13.8-35.2,35.2-35.2,10.9,0,11.3-15.4,0-15.4-30.4,0-50.6,22.3-50.6,50.6,0,29.6,22.7,50.6,50.6,50.6,21.1,0,33.6-5.7,46.6-30.8l17.8-34c9.3-17.4,22.7-21.1,36.9-21.1,19.9,0,35.2,15.4,35.2,34,0,20.7-16.2,36.5-35.2,36.5-9.7,0-9.7,15.4,0,15.4,27.5,0,50.6-21.5,50.6-51.9C290.7,42.3,266.8,21.2,240.1,21.2Z"/><path class="cls-1" d="M296.7,22.9h16V37.1q7.05-8.7,15-12.6a40.87,40.87,0,0,1,17.6-3.8c14.2,0,23.8,4.9,28.7,14.8,2.7,5.4,4.1,13.2,4.1,23.2v64.1H361v-63q0-9.15-2.7-14.7-4.5-9.3-16.2-9.3a33.56,33.56,0,0,0-9.8,1.2,27.53,27.53,0,0,0-17.6,18.4,70.63,70.63,0,0,0-1.3,15.1v52.3H296.7Z"/></g></svg>