<?xml version="1.0" encoding="utf-8"?>
<!-- Generator: Adobe Illustrator 21.0.0, SVG Export Plug-In . SVG Version: 6.00 Build 0)  -->
<svg version="1.1" id="Layer_1" xmlns="http://www.w3.org/2000/svg" xmlns:xlink="http://www.w3.org/1999/xlink" x="0px" y="0px"
	 viewBox="0 0 378.1 123.6" style="enable-background:new 0 0 378.1 123.6;" xml:space="preserve">
<style type="text/css">
	.st0{fill:#191919;}
</style>
<title>logoLight</title>
<g id="Logo">
	<path class="st0" d="M77.3,35.3c-5-9.9-14.6-14.8-28.7-14.8c-6.1-0.1-12.1,1.2-17.6,3.8c-5.9,3-11,7.3-15,12.6V0H0v122.6h16.8V70.3
		c0-6.5,0.4-11.6,1.3-15.1c1-3.8,2.9-7.3,5.5-10.2c3.1-3.9,7.4-6.7,12.1-8.2c3.2-0.9,6.5-1.3,9.8-1.2c7.8,0,13.2,3.1,16.2,9.3
		c1.8,3.7,2.7,8.6,2.7,14.7v63h17.1V58.5C81.4,48.4,80,40.7,77.3,35.3z"/>
	<path class="st0" d="M286.2,113.9h-2c-0.8,0-1.5-1.2-1.5-2.6c0-2.1,1.2-4.4,3.9-7.6l0.3-0.4l-2.3-2.3l-0.4,0.3
		c-4.6,4.3-6.9,9-6.9,14s2.5,8.3,6.3,8.3c3.2,0.1,5.9-2.3,6.1-5.6v-0.3c0.3-1.8-1-3.5-2.9-3.8C286.6,113.9,286.4,113.9,286.2,113.9
		L286.2,113.9z"/>
	<path class="st0" d="M136.5,60.1l-0.3,0.4l-7.4,9.4l-0.3,0.4l2.1,1.8c3,2.5,5.9,4.9,8.8,7.7l0.3,0.3l0.3-0.3c3-2.6,5.6-5.7,7.7-9.1
		l0.2-0.3l-0.3-0.3C144.2,66.4,140.5,63.1,136.5,60.1z"/>
	<path class="st0" d="M240.1,21.2c-14.3,0-27.8,4-38.4,14c-1.8-3.1-4.3-5.7-7.2-7.8c-3.8-2.4-7.8-4.5-12-6.3l-0.4,0.3
		c0.4,3.2,1.1,6.3,2,9.4c3.9,1.4,7.8,3.1,11.4,5.1c1.9,1.2,1.8,3.4,0.7,5.2c-2,3.1-6.8,5-11.6,1.9c-2.1-1.4-4-3-5.7-4.9l-0.5,0.2
		l-0.2,5.3c5.4,6.2,7,7.8,7.2,11.1c0.1,2.4-0.5,4.8-1.8,6.9c-0.9,1.8-3.1,2.5-4.9,1.5l-0.4-0.2c-1.9-1.2-4-5.1-6.4-10.2h-0.5l-1.4,6
		l2.8,6.8c2.2,5.3,1.8,13.5-0.9,19.4l-0.5,0.9c-0.3,0.5-0.6,1-0.8,1.5l-0.2,0.4c-9.2,16.2-20.8,19.6-31.4,19.6
		c-21.9,0-35.2-14.2-35.2-35.2c0-20.3,13.8-35.2,35.2-35.2c10.9,0,11.3-15.4,0-15.4c-30.4,0-50.6,22.3-50.6,50.6
		c0,29.6,22.7,50.6,50.6,50.6c21.1,0,33.6-5.7,46.6-30.8l17.8-34c9.3-17.4,22.7-21.1,36.9-21.1c19.9,0,35.2,15.4,35.2,34
		c0,20.7-16.2,36.5-35.2,36.5c-9.7,0-9.7,15.4,0,15.4c27.5,0,50.6-21.5,50.6-51.9C290.7,42.3,266.8,21.2,240.1,21.2z"/>
	<path class="st0" d="M296.7,22.9h16v14.2c4.7-5.8,9.7-10,15-12.6c5.5-2.6,11.5-3.9,17.6-3.8c14.2,0,23.8,4.9,28.7,14.8
		c2.7,5.4,4.1,13.2,4.1,23.2v64.1H361v-63c0-6.1-0.9-11-2.7-14.7c-3-6.2-8.4-9.3-16.2-9.3c-3.3-0.1-6.6,0.3-9.8,1.2
		c-8.5,2.9-15.1,9.8-17.6,18.4c-1,5-1.4,10-1.3,15.1v52.3h-16.7V22.9z"/>
</g>
</svg>
